<mxfile host="app.diagrams.net" agent="Mozilla/5.0 (X11; Ubuntu; Linux x86_64; rv:132.0) Gecko/20100101 Firefox/132.0" version="26.0.9">
  <diagram name="Page-1" id="r-P4PAZcc9CYuIJDKofI">
    <mxGraphModel dx="1364" dy="795" grid="1" gridSize="10" guides="1" tooltips="1" connect="1" arrows="1" fold="1" page="1" pageScale="1" pageWidth="850" pageHeight="1100" math="0" shadow="0">
      <root>
        <mxCell id="0" />
        <mxCell id="1" parent="0" />
        <mxCell id="WuYFY4bX9p_p9fy_l80a-4" value="" style="edgeStyle=orthogonalEdgeStyle;rounded=0;orthogonalLoop=1;jettySize=auto;html=1;" edge="1" parent="1" source="WuYFY4bX9p_p9fy_l80a-2" target="WuYFY4bX9p_p9fy_l80a-3">
          <mxGeometry relative="1" as="geometry" />
        </mxCell>
        <mxCell id="WuYFY4bX9p_p9fy_l80a-2" value="start" style="ellipse;whiteSpace=wrap;html=1;" vertex="1" parent="1">
          <mxGeometry x="380" y="50" width="120" height="80" as="geometry" />
        </mxCell>
        <mxCell id="WuYFY4bX9p_p9fy_l80a-6" value="" style="edgeStyle=orthogonalEdgeStyle;rounded=0;orthogonalLoop=1;jettySize=auto;html=1;" edge="1" parent="1" source="WuYFY4bX9p_p9fy_l80a-3" target="WuYFY4bX9p_p9fy_l80a-5">
          <mxGeometry relative="1" as="geometry" />
        </mxCell>
        <mxCell id="WuYFY4bX9p_p9fy_l80a-3" value="n = 0 " style="whiteSpace=wrap;html=1;" vertex="1" parent="1">
          <mxGeometry x="380" y="160" width="120" height="70" as="geometry" />
        </mxCell>
        <mxCell id="WuYFY4bX9p_p9fy_l80a-8" value="" style="edgeStyle=orthogonalEdgeStyle;rounded=0;orthogonalLoop=1;jettySize=auto;html=1;" edge="1" parent="1" source="WuYFY4bX9p_p9fy_l80a-5" target="WuYFY4bX9p_p9fy_l80a-7">
          <mxGeometry relative="1" as="geometry" />
        </mxCell>
        <mxCell id="WuYFY4bX9p_p9fy_l80a-5" value="read n " style="shape=parallelogram;perimeter=parallelogramPerimeter;whiteSpace=wrap;html=1;fixedSize=1;" vertex="1" parent="1">
          <mxGeometry x="380" y="270" width="120" height="60" as="geometry" />
        </mxCell>
        <mxCell id="WuYFY4bX9p_p9fy_l80a-10" value="" style="edgeStyle=orthogonalEdgeStyle;rounded=0;orthogonalLoop=1;jettySize=auto;html=1;" edge="1" parent="1" source="WuYFY4bX9p_p9fy_l80a-7" target="WuYFY4bX9p_p9fy_l80a-9">
          <mxGeometry relative="1" as="geometry" />
        </mxCell>
        <mxCell id="WuYFY4bX9p_p9fy_l80a-11" value="true" style="edgeLabel;html=1;align=center;verticalAlign=middle;resizable=0;points=[];" vertex="1" connectable="0" parent="WuYFY4bX9p_p9fy_l80a-10">
          <mxGeometry x="0.125" y="4" relative="1" as="geometry">
            <mxPoint as="offset" />
          </mxGeometry>
        </mxCell>
        <mxCell id="WuYFY4bX9p_p9fy_l80a-7" value="n % 1 == 0" style="rhombus;whiteSpace=wrap;html=1;" vertex="1" parent="1">
          <mxGeometry x="400" y="360" width="80" height="80" as="geometry" />
        </mxCell>
        <mxCell id="WuYFY4bX9p_p9fy_l80a-13" value="" style="edgeStyle=orthogonalEdgeStyle;rounded=0;orthogonalLoop=1;jettySize=auto;html=1;" edge="1" parent="1" source="WuYFY4bX9p_p9fy_l80a-9" target="WuYFY4bX9p_p9fy_l80a-12">
          <mxGeometry relative="1" as="geometry" />
        </mxCell>
        <mxCell id="WuYFY4bX9p_p9fy_l80a-17" value="true" style="edgeLabel;html=1;align=center;verticalAlign=middle;resizable=0;points=[];" vertex="1" connectable="0" parent="WuYFY4bX9p_p9fy_l80a-13">
          <mxGeometry x="-0.3" y="-4" relative="1" as="geometry">
            <mxPoint as="offset" />
          </mxGeometry>
        </mxCell>
        <mxCell id="WuYFY4bX9p_p9fy_l80a-15" value="" style="edgeStyle=orthogonalEdgeStyle;rounded=0;orthogonalLoop=1;jettySize=auto;html=1;" edge="1" parent="1" source="WuYFY4bX9p_p9fy_l80a-9">
          <mxGeometry relative="1" as="geometry">
            <mxPoint x="460" y="500" as="targetPoint" />
          </mxGeometry>
        </mxCell>
        <mxCell id="WuYFY4bX9p_p9fy_l80a-16" value="false" style="edgeLabel;html=1;align=center;verticalAlign=middle;resizable=0;points=[];" vertex="1" connectable="0" parent="WuYFY4bX9p_p9fy_l80a-15">
          <mxGeometry x="0.292" relative="1" as="geometry">
            <mxPoint as="offset" />
          </mxGeometry>
        </mxCell>
        <mxCell id="WuYFY4bX9p_p9fy_l80a-9" value="&lt;div&gt;n % 2 == 0&lt;/div&gt;&lt;div&gt;and n &amp;gt; 10&lt;br&gt;&lt;/div&gt;" style="rhombus;whiteSpace=wrap;html=1;" vertex="1" parent="1">
          <mxGeometry x="540" y="460" width="80" height="80" as="geometry" />
        </mxCell>
        <mxCell id="WuYFY4bX9p_p9fy_l80a-22" style="edgeStyle=orthogonalEdgeStyle;rounded=0;orthogonalLoop=1;jettySize=auto;html=1;" edge="1" parent="1" source="WuYFY4bX9p_p9fy_l80a-12" target="WuYFY4bX9p_p9fy_l80a-20">
          <mxGeometry relative="1" as="geometry">
            <mxPoint x="680" y="740" as="targetPoint" />
            <Array as="points">
              <mxPoint x="745" y="635" />
              <mxPoint x="681" y="635" />
              <mxPoint x="681" y="720" />
            </Array>
          </mxGeometry>
        </mxCell>
        <mxCell id="WuYFY4bX9p_p9fy_l80a-12" value="write numero valido" style="shape=parallelogram;perimeter=parallelogramPerimeter;whiteSpace=wrap;html=1;fixedSize=1;" vertex="1" parent="1">
          <mxGeometry x="670" y="470" width="150" height="60" as="geometry" />
        </mxCell>
        <mxCell id="WuYFY4bX9p_p9fy_l80a-21" value="" style="edgeStyle=orthogonalEdgeStyle;rounded=0;orthogonalLoop=1;jettySize=auto;html=1;" edge="1" parent="1" source="WuYFY4bX9p_p9fy_l80a-18" target="WuYFY4bX9p_p9fy_l80a-20">
          <mxGeometry relative="1" as="geometry" />
        </mxCell>
        <mxCell id="WuYFY4bX9p_p9fy_l80a-18" value="write non valido" style="shape=parallelogram;perimeter=parallelogramPerimeter;whiteSpace=wrap;html=1;fixedSize=1;" vertex="1" parent="1">
          <mxGeometry x="350" y="470" width="120" height="60" as="geometry" />
        </mxCell>
        <mxCell id="WuYFY4bX9p_p9fy_l80a-20" value="end" style="ellipse;whiteSpace=wrap;html=1;" vertex="1" parent="1">
          <mxGeometry x="440" y="680" width="80" height="80" as="geometry" />
        </mxCell>
      </root>
    </mxGraphModel>
  </diagram>
</mxfile>
